<?xml version="1.0" encoding="UTF-8"?>
<svg id="_レイヤー_1" data-name="レイヤー 1" xmlns="http://www.w3.org/2000/svg" viewBox="0 0 481.89 340.16">
  <defs>
    <style>
      .cls-1 {
        fill: #0b2614;
      }

      .cls-1, .cls-2, .cls-3, .cls-4, .cls-5, .cls-6 {
        stroke-width: 0px;
      }

      .cls-2 {
        fill: #e08a52;
      }

      .cls-3 {
        fill: #d8271b;
      }

      .cls-4 {
        fill: #90bc87;
      }

      .cls-5 {
        fill: #7e3320;
      }

      .cls-6 {
        fill: #fdfbf8;
      }
    </style>
  </defs>
  <path class="cls-1" d="m95.12,53.1c-3.98-1.18-8.03-2.19-11.68-4.26-.99-.56-2.44-1.06-2.32-2.46.12-1.49,1.67-1.89,2.82-2.28,14.14-4.71,28.51-7.63,43.57-6.46,16.65,1.29,31.55,6.81,44.65,17.15,2.81,2.21,5.42,4.67,7.86,7.49,7.95-7.28,16.76-13.17,26.44-17.63,12.02-5.54,24.61-8.77,37.96-8.36,3.57.11,7.12.56,10.6,1.41,1.83.44,2.66-.15,3.04-2.08,3.09-15.81,16.17-25.97,32.13-24.94,5.79.38,10.79,2.85,15.17,6.57.8.68,1.19.96,2.19.07,10.84-9.7,26.19-10.2,37.97-1.34.75.56,1.51,1.12,2.21,1.74,1.13,1,2.14,2.72,3.35,2.86,1.03.12,2.23-1.6,3.41-2.43,11.49-8.11,27.24-7.74,38.59.88,11.27,8.55,15.52,23.44,10.61,37.12-.22.62-.44,1.24-.73,2.05,2.97-.63,5.73-1.25,8.51-1.78,1.96-.37,3.88-.29,5.7.71,2,1.1,2.89,2.78,2.81,5-.08,2.07-1.34,3.39-3.16,3.89-5.54,1.54-11.13,2.93-16.71,4.33-1.13.28-2.4.03-3.02-.92-1.01-1.56-1.83-1.04-3.01-.28-2.2,1.44-4.52,2.7-6.77,4.06-2.35,1.42-.39,3.14-.19,4.64.25,1.84,1.55.4,2.1.21,19.75-6.76,37.64-3.26,53.27,10.34,17.94,15.6,21.04,39.69,8.19,59.74-3.2,4.99-7.04,9.4-11.84,12.93-.63.47-1.25,1.51-2.14.99-.67-.39-.28-1.4-.3-2.13-.31-10.07.22-20.13.59-30.19.15-4.09.3-8.19.54-12.27.1-1.75-.46-1.97-2.07-1.52-6.8,1.87-6.8,1.82-6.87,8.73-.06,5.89-.71,11.71-1.95,17.48-2.32,10.75-9.05,18.47-17.22,25.18-.98.81-2.3,2.44-3.74,1.08-1.47-1.38-1.99-3.29-.97-5.35,3.06-6.17,5.72-12.52,7.97-19.03,3.19-9.25,5.37-18.76,7.12-28.38,1.16-6.42,5.14-10.59,12-9.69,1.56.2,1.9-.41,1.75-1.86-.52-5.1-.9-5.39-5.94-4.59-5.72.91-10.83,2.94-14.54,7.62-.43.54-.75.72-1.45.37-8.07-3.99-15.08-1.24-21.52,3.73-5.85,4.52-9.82,10.58-12.92,17.21-5.14,11.01-8.06,22.55-7.96,34.76.04,4.71.86,9.29,3.04,13.55,3.53,6.91,10.58,8.9,17.2,4.89,3.14-1.9,5.76-4.45,8.76-6.64-1.51,3.63-2.12,7.67-5.78,10.13-5.12,3.44-9.82,7.39-13.35,12.52-4.14,6-5.93,12.72-4.53,19.87,1.49,7.63,8.61,13.34,16.7,14.33,16.62,2.05,29.66-7.24,36.84-21.16,4.64-9,6.64-18.7,7.58-28.68.4-4.25.65-8.51.5-12.78-.04-1.3.45-1.99,1.47-2.63,1.66-1.03,3.38-2.04,4.82-3.35,1.48-1.34,2.12-.63,2.85.65,3.36,5.84,6.11,11.98,7.76,18.48,8.12,31.98,1.13,60.23-21.25,84.58-6.58,7.16-14.51,12.6-22.94,17.34-1.36.77-2.72,1.55-4.13,2.23-.96.47-1.85,1.04-2.23,2-7.21,18.17-21.93,27.34-39.52,33.13-13.16,4.33-26.67,5.05-40.36,4.08-18.82-1.35-36.31-7.47-53.49-14.81-8.42-3.6-17-6.73-26.19-8.01-11.47-1.6-22.54-.41-33.39,3.47,2.24,2.76,9.9,4.73,12.94,3.2,2.89-1.46,5.67-1.79,8.76-.5,4.04,1.68,8.14,2.15,12.65,1.39,3.39-.57,7.08.4,10.61.91,2.93.42,5.94.41,8.77,1.42,1.81.65,3.33,1.62,4.1,3.54.58,1.44.35,2.34-1.26,2.6-2.01.32-4.03.66-6.06.85-20.08,1.8-39.88.32-58.93-6.46-4.87-1.73-8.75-1.29-13.24.34-12.52,4.55-24.91,9.48-37.89,12.66-15.18,3.72-30.51,5.38-46.1,3.74-17.08-1.8-32.55-8.08-46.95-17.21-5.23-3.32-10.37-6.77-15.55-10.16-.14-.09-.25-.23-.38-.34q-3.75-3.45-1.16-8.03c1.84-3.26,3.61-6.56,5.49-9.79.75-1.28.84-2-.51-3.15-9.24-7.83-16.16-17.32-19.16-29.2-3.45-13.67-2.2-27.18,2.2-40.47,5.12-15.49,14.37-28.47,24.9-40.65,3.1-3.59,3.08-3.59-1.41-5.38-10.31-4.1-19.07-10.01-24.18-20.36-5.84-11.85-5.47-23.81-.08-35.47,6.87-14.86,18.28-25.21,33.65-31.01,1.5-.57,2.11-1.51,2.72-2.75,2.5-5.11,4.64-10.46,8.64-14.67,3.95-4.15,9.13-6.03,15.21-2.98,17.52,8.8,35.05,17.56,52.56,26.37,5.03,2.53,8.69,6.39,9.94,11.97,1.16,5.18,3.86,8.7,8.92,10.47,1.66.58,3.17,1.56,4.9,2.43.05-.88.09-1.55.12-2.22,3.36-9.61,1.13-18.44-4-26.73-6.17-9.98-15.54-15.96-26.07-20.49-12.36-5.31-25.41-6.68-38.64-7.15Zm285.98,204.12c-.12-.16-.24-.32-.36-.47l.07-.11h-.13c-7.16-7.66-16.17-11.97-26.3-13.99-9.27-1.85-18.62-1.43-27.91.09-3.08.5-6.21.99-9.51,2.26,1.43,1.14,2.55,2.03,3.67,2.92,2.42,2.77,5.09,5.42,4.72,9.57-.28,1.03-.21,2.06-.07,3.09-.9,1.87-1.79,3.75-2.69,5.62-1.09.68-2.07,1.44-2.12,2.88-4.12,2.54-8.33,4.83-13.12,5.99-3.75.92-7.62.49-11.34,1.39-3.4-.79-6.87-1.11-10.34-1.45-3.4-.5-6.61-1.65-9.8-2.88-1.31-.59-2.62-1.19-3.94-1.78-.95-.47-1.89-.94-2.83-1.4-1.87-.11-2.34-2.41-4.13-2.65-1.18-.76-2.68-.98-3.57-2.25-.42-.6-.99-.3-1.59-.05-2.81,1.2-5.66,2.3-8.48,3.46-22.1,9.08-45.82,12.06-68.73,18.06-3.95,1.04-7.89,1.93-11.58,3.71-2.36.46-4.4,1.73-6.59,2.61-5.61,2.22-11.24,4.41-16.84,6.67-7.16,2.9-14.41,5.6-21.9,7.42-7.62,1.86-15.3,3.45-23.12,4.5-9.73,1.31-19.42.6-28.91.78.46.25,1.18.69,1.93,1.05,7.41,3.54,15.43,5.12,23.43,5.88,13.2,1.24,26.38.97,39.42-2.56,7.53-2.03,15.09-4.04,22.36-6.71,9.78-3.6,19.69-6.92,29.27-11.13,3.67-1.61,7.8-2.68,11.78-3.77,7.22-1.99,14.48-3.88,21.85-5.28,8.31-.56,16.58-.91,24.82.98,2.2.5,4.24,1.72,6.58,1.57,1.72.62,3.44,1.24,5.16,1.86v.03c.23.91.93.65,1.54.62.79.34,1.58.68,2.37,1.01,1.71,1.28,4.19,1.19,5.58,3.09.08.11.48,0,.74-.01,1.99.7,3.98,1.39,5.97,2.09,2.56,2.11,6.06,2.17,8.73,4.05,9.19,3.85,18.66,6.82,28.51,8.4,15.54,2.5,30.99,2.56,46.18-2.23,9.16-2.89,17.35-7.38,23.57-14.93,10.1-12.24,7.41-28.25-1.91-37.47-.11-.13-.23-.27-.34-.4l.07-.17-.18.03Zm-206.67-127.73c-.19-.42-.53-.54-.95-.49-.1-.07-.21-.11-.34-.12-.39-.96-1.24-.98-2.08-1.02-7.15-3.44-14.3-6.88-21.46-10.32-2.26-2.01-5.36-3.34-5.68-6.95l-1.62-11.11c-.25-4.25-2.93-6.7-6.42-8.46-7.63-3.86-15.28-7.68-22.94-11.47-8.95-4.44-17.9-8.88-26.89-13.22-3.73-1.8-6.43-.99-8.51,2.23-3.98,7.72-8.11,15.38-11.9,23.2-2.97,6.13-2.16,8.15,3.45,11.85,5.51,3.63,11.07,7.16,16.69,10.61,8.04,4.93,15.85,10.22,23.87,15.18,2.04,1.27,4.3,1.73,7,1.05,5.06-1.28,9.47-4.25,14.67-5.12,4.16-.7,8.36-1.09,12.39-.03,4.92,1.3,9.39,3.92,13.96,6.15,8.32,4.07,16.57,8.27,24.86,12.41.55.27,1.47.95,1.67-.06.8-4.15,3.66-4.87,7.2-4.68.4.02.92.13,1.02-.45.1-.58-.29-1.01-.75-1.22-4.84-2.13-9.39-4.89-14.45-6.54-.09-.12-.19-.21-.33-.27-.53-.87-1.56-.66-2.31-1.05l-.15-.08Zm-107.83-13.92c-5.34-9.8-21.94-12.54-29.63-2.69-.81.85-1.56,1.71-2.17,2.75-3.82,6.54-4.17,13.42-2.05,20.51,2.72,9.1,10.05,14.68,18.62,15.22,4.65.29,8.96-1.25,12.65-4.23,1.56-1.26,3.07-2.47,5.04-3.22,3.1-1.19,6.29-2.38,8.82-4.7,1.01,0,1.57-.91,2.44-1.22.67-.23.72-.95.45-1.5-.26-.53-1.01-.59-1.32-.27-.91.94-2.48.66-3.2,1.84-3.56.25-7.12.73-10.32-1.63-.73-.54-1.7-.44-2.57.7-2.32,3.04-5.17,5.6-9.14,6.21-6.59,1.01-11.96-2.13-14.95-8.18-2.11-4.28-2.44-9.11.03-13.24,2.85-4.74,7.43-7.32,13.21-7.04,5.48.26,9.17,3.38,11.95,7.81.89,1.42,1.74,2.86,2.62,4.28.48.78,1.23,1.37,2.11,1.08,1.02-.34,1.33-1.51,1.07-2.34-.63-2.01-.23-4.3-1.67-6.08-.37-1.5-.84-2.96-2.01-4.07Zm302.47,112.46c-2.34-.76-4.64-1.71-7.03-2.26-10.22-2.35-20.5-1.94-30.74-.27-7.45,1.21-14.91,2.48-21.89,5.57-.64.19-1.63.18-1.87.6-1.74,2.99-3.36,6.05-5.77,9.3,5.48-.76,10.1-2.23,14.82-3.26,7.98-1.74,16.09-2.76,24.26-2.72,8.82.05,17.48.99,25.83,4.37,8.67,3.52,16.1,8.6,22.26,15.58,3.33,3.77,5.37,8.3,7.04,12.98.5,1.41,1.2,1.36,2.29,1.03,3.3-1.01,6.69-1.63,9.98-2.71,9.12-3.01,16.68-8.22,22.82-15.55,4.6-5.48,7.55-11.91,9.99-18.52,1.23-3.33,2.86-6.72,2.39-10.5-.08-.61.25-1.57-.8-1.56-.83,0-1.93-.49-2.38.84-.19.55-.61,1.02-.85,1.55-6.49,14.62-18.06,22.33-33.62,24.18-8.26.98-16.42.19-23.8-4.24-.9-.54-2.27-1.06-1.91-2.37.31-1.12,1.64-1.3,2.73-1.46,1.24-.19,2.59.23,4.28-.53-4.57-2.05-8.33-4.47-12.16-6.77-1.59-1.73-3.67-2.6-5.85-3.28Zm-155.51,44.42c6.61-.75,12.9-2.94,19.3-4.57,7.83-1.99,15.28-5.25,22.77-8.45-.95-1.59-2.33-2.69-3.64-3.85-.59-.53-1.11-.69-1.81-.31-7.68,4.12-15.9,6.99-23.93,10.29-4.88,2-9.83,3.84-14.75,5.75-3.5.34-6.31,2.38-9.46,3.66,2.2-.08,4.57.03,6.37-.93,1.7-.91,3.88.23,5.16-1.58Zm142.83-160.6c1.91.26,3.87-.22,5.76.51.78.3,1.28.02,1.41-1.08.41-3.47,1.3-6.88,2.03-10.29,1.54-7.21,2.58-14.5,3.89-21.74.76-4.17.09-5.01-4.1-6.03-1.16-.5-2.34-.97-3.48-1.51-1.59-.76-2.25.33-2.35,1.46-.48,5.29-1.63,10.47-2.63,15.67-1.11,5.76-2.29,11.5-3.47,17.24-.2.98-.36,2.2-1.85,1.9-3.41-.67-6.84-1.33-10.04-2.89.9-1.41,3.55-2.21,2.69-3.47-1.73-2.52.51-2.42,1.49-3.1,1.12-.78,2.23-1.16.68-2.75-2.14-2.19-2.05-2.38.73-3.91,1.76-.97,2.25-1.96.68-3.5-.29-.29-.37-.8-.67-1.07-1.07-.99-.6-1.59.38-2.28,3.07-2.15,3.12-2.22.73-5.3-.79-1.02-.47-1.23.39-1.83,3.52-2.43,3.22-1.73.6-5.21-.22-.29-.47-.57-.78-.94,1.1-.49,2.06-.84,2.95-1.32,1.4-.75,1.68-1.49-.02-2.33-2.22-1.09-4.4-2.25-6.07-4.14-.65-.74-1.5-1.37-.77-2.62.7-1.18,1.61-1.02,2.64-.76,3.93,1.01,7.87,1.14,11.87.32,4.03-.83,7.7-2.6,11.45-4.17.5-.21,1.06-.84,1.58-.19.39.48.3,1.2-.04,1.69-.86,1.26-1.78,2.48-2.74,3.66-1.58,1.95-3.84,3.12-6.16,4.9,4.61.51,8.66.25,12.57-.92,9.33-2.8,15.61-8.86,17.24-18.55,1.33-7.88-1.29-14.44-8.22-19.37-5.72-4.07-11.62-4.96-17.99-2.98-8.86,2.75-13.07,9.36-14.49,18.25-2.07,12.87-10.1,20.72-22.8,22.64-9.32,1.41-20.71-5.06-25.55-14.54-1.52-2.99-2.29-6.08-.88-9.85,1,1.84,1.75,3.33,2.6,4.75,4.41,7.31,10.58,11.84,19.37,12.19,15.55.63,23.03-14.77,17.11-26.97-6.38-13.15-24.35-12.61-32.62-3.09-1.86,2.14-6.54,2.16-8.23-.1-6.48-8.66-20.94-8.59-27.59.14-6.86,9.02-4.34,21.64,5.59,27.91,3.84,2.43,7.07,3.54,9.43,3.22-5.75-3.65-10.04-8.33-11.26-15.28.49-.04.78.11.97.33,6.92,8.12,15.33,13.08,26.37,12.54.76-.04,1.61.13,1.84,1.04.21.85-.37,1.44-.93,1.97-2.24,2.13-5.06,3.22-7.99,3.65-1.96.29-2.45,1.2-2.79,2.86-1.82,8.99-3.72,17.96-5.62,26.93-.77,3.62-1.53,3.39,2.85,4.96,14.89,5.32,30.31,8.6,45.82,11.46,6.08,1.12,12.17,2.46,18.44,1.91Zm-77.1,24.97c.46-1.31,1.18-2.44-.97-3.29-1.86-.74-2.41.13-3.15,1.32-4.47,7.23-8.95,14.46-13.42,21.69-3.16,5.11-6.32,10.23-9.88,15.99.88-4.51,1.53-8.26,2.35-11.97,3.18-14.25,6.47-28.48,9.6-42.75,1.11-5.06,2.3-10.17.92-15.4-.31-1.18.59-1.23,1.24-1.49,7.1-2.87,14.72,1.53,16.22,9.23,1.01,5.19-.04,10.15-1.15,15.14-.24,1.09-1.15,2.39.62,2.99,1.66.56,2.43-.52,3.11-1.86,1.59-3.11,1.98-6.49,2.34-9.87,1.19-11.48-6-21.14-17.32-23.5-8.26-1.72-16.26-.55-24.08,2.14-16.73,5.74-24.29,17.07-26.46,34.37-.39,3.14.5,3.82,3.59,3.33,2.26-.36,4.54-.68,6.82-.94,3.93-.44,4.29-.64,5.41-4.52,1.63-5.59,3.8-10.92,7.32-15.62,1.69-2.25,3.45-4.47,6.02-5.8,2.68-1.38,4.73-.31,5.04,2.73.22,2.12.16,4.25-.23,6.37-1.47,7.94-2.88,15.89-4.36,23.82-3.47,18.7-7.06,37.38-11.04,55.97-2.14,9.98-2.64,19.91,2.46,29.09,11.99,21.61,29.59,35.92,54.47,39.89,6.3,1,12.77.36,18.67-2.72,6.49-3.39,7.8-9.66,3.22-15.29-.64-.79-6.77-.27-7.2.64-.09.19.07.49.08.74.19,4.03-1.05,5.86-4.94,6.66-6.68,1.37-13.08.03-19.07-2.89-7.13-3.48-13.09-8.56-18.13-14.69-7.78-9.49-14.1-19.82-17.71-31.63-1.86-6.07-.73-11.61,3.8-16.27.66-.68,1.22-1.35,1.56.33,1.01,5,2.62,9.83,4.63,14.51,4.25,9.91,9.38,19.28,17.17,26.94,4.13,4.06,9,5.93,14.83,5.22,3.68-.45,6.46-2.09,7.14-4.59-4.67,1.1-8.11-.91-11.05-4.25-5.28-5.99-9.29-12.82-13.07-19.78-3.61-6.65-7.09-13.38-9.23-20.7-.33-1.12-.45-1.68,1.09-2.04,2.89-.68,5.62-1.86,8.03-3.72,8.12-6.27,12.51-14.72,14.08-24.64,1.56-9.82-1.21-15.06-9.38-18.89ZM52.64,241.11c.06-9.39,1.29-16.34,3.36-23.12,6.17-20.23,16.23-38.35,30.11-54.29,5.62-6.46,11.93-12.16,20.35-14.9,9.93-3.23,18.52,2.34,19.56,12.74,1.09,11-2.34,20.8-8.06,29.96-1.65,2.64-3.9,4.72-6.44,6.48-2.12,1.48-4.5,2.4-6.95,1.31-2.56-1.14-3.12-3.71-3.21-6.25-.39-10.62,3.19-19.5,11.7-26.16,1.4-1.1,2.92-2.12,2.29-4.36-.67-2.39-2.5-3.12-4.62-3.31-3.73-.34-7.07.97-10.09,2.99-10.22,6.88-13.98,16.88-12.87,28.71.65,6.95,4.18,12.47,11.26,14.66,5.3,1.64,10.79,1.33,15.65-1.32,15.83-8.64,24.48-22.28,25.3-40.16.63-13.97-10.01-24.05-23.98-24.45-11.2-.32-20.83,3.8-29.56,10.24-18.15,13.41-32.07,30.48-41.79,50.78-6.42,13.4-10.56,27.51-8.74,42.67,1.29,10.79,5.91,19.73,15.8,25.05,6.62,3.56,13.84,4.57,21.29,3.41,16.58-2.57,29.41-10.66,37.3-25.76,2.42-4.64,3.71-9.69,3.93-14.95.03-.69.46-2.02-1.04-1.74-3.17.58-6.32,1.31-9.47,1.99-.91.2-1,1.04-1.28,1.72-1.53,3.7-3.41,7.22-5.58,10.59-4.81,7.49-10.53,14.01-18.94,17.67-7.48,3.26-15.24,1.29-20.32-5.15-4.03-5.12-5.01-11.05-4.95-15.06Zm119.49-12.38c3.82,5.47,7.04,6.38,12.96,3.64,4.22-1.95,7.29-5.29,9.91-9,1.44-2.03,2.63-3.75,5.57-2.42.96.44,2.36.07,3.52-.13,7.61-1.3,13.52-5.41,18.07-11.47,6.05-8.06,8.96-17.5,11.2-27.13.94-4.03.66-8.07-3.77-10.38-.93-.49-.53-1.23-.36-2,1.47-6.48,4.05-12.43,8.35-17.55,1.06-1.26,1.09-2.19-.18-3.42-1.24-1.2-2.25-1.72-3.65-.39-1.13,1.07-2.12,1.28-3.45,0-2.41-2.35-5.44-2.62-8.58-1.81-6.13,1.57-10.51,5.43-13.58,10.82-.76,1.33-1.34,1.7-2.87,1.05-2.16-.93-4.48-.73-6.75-.1-4.91,1.37-8.54,4.53-11.56,8.43-4.75,6.11-7.7,13.16-10.39,20.34-3.38,9.04-6.26,18.29-6.18,27.94.05,5.39-2.51,8.7-5.72,12.1-1.07,1.14-2.39,1.94-3.83,2.46-2.2.8-4.4.06-5.09-1.6-.4-.95-.51-2,.83-2.14,2.38-.24,2.78-2.01,3.06-3.77,2.26-14,6.84-27.3,12.15-40.38,1.47-3.64,2.8-7.32,2.32-11.37-.12-1.01-.19-1.84-1.54-1.85-.55,0-1.22-.26-1.61-.64-4.19-4.05-8.73-3.31-13.44-1.13-7.51,3.48-11.71,9.92-15.09,17.01-2.61,5.47-5.27,10.88-9.29,15.48-1.37,1.56-2.33,3.34-3.08,5.25-4.07,10.27-5.96,20.9-5.08,31.96.22,2.73.97,5.35,2.29,7.76,3.43,6.29,9.91,7.63,16.3,3.52,4.13-2.66,6.93-6.49,9.67-10.42.73-1.04,1.25-1.66,2.84-1.09,2.54.91,5.17.44,7.69-.65,3.39-1.47,5.85-4.03,8.38-6.92Zm-89.01,69.84c5.12.14,12.16-.58,19.11-1.84,13.97-2.53,27.53-6.61,40.79-11.65,17.94-6.81,35.47-14.59,53.03-22.31,13.04-5.74,26.16-11.33,39.28-16.9,1.67-.71,2.12-1.24.9-2.8-3.15-4.02-6.21-8.12-9.28-12.21-.94-1.25-1.84-1.61-3.43-.86-5.67,2.71-11.44,5.23-17.16,7.84-24.42,11.15-48.64,22.75-73.64,32.61-24.45,9.65-49.54,16.37-76.07,16.31-.93,0-1.88.08-2.8.24-2.6.45-2.5,2.85-3.13,4.63-.64,1.81.98,2.05,2.12,2.48,9.12,3.42,18.62,4.49,30.27,4.46Zm269.02-156.11c.36,1.09-.05,1.59-.22,2.14-1.68,5.46-4.25,10.55-6.4,15.81-2.69,6.6-4.61,13.32-3.48,20.58.92,5.89,4.44,9.73,8.93,9.28,3.1-.31,6.12-1.09,9.05-2.31,1.9-.79,1.7-1.48.53-2.75-3.41-3.7-4.65-8.22-4.65-13.13,0-7.3,2.56-13.97,5.08-20.67,1.97-5.24,4.11-10.47,4.02-16.22-.07-4.53-2.09-7.21-6-8.02-3.45-.72-6.76.36-10.08,1.02-1.24.25-.59,1.09-.31,1.77,1.12,2.75.69,5.38-.94,7.76-4.55,6.63-9.67,12.82-14.99,19.5,1.06-4.63,2.04-8.74,2.94-12.87,1.66-7.68-2.02-12.07-9.88-11.76-1.44.06-2.88.29-4.3.54-2.84.49-2.94.77-1.29,3.09.49.69.97,1.4,1.5,2.06,2,2.52,2.37,5.32,1.66,8.41-3.09,13.57-6.15,27.14-9.16,40.73-.95,4.31-2.22,8.62-1.76,13.09.41,4.05,2.02,6.42,6.46,4.84,1.75-.63,3.56-1.11,5.38-1.52,1.78-.4,2.68-.98,1.42-2.91-.58-.89-.81-2.04-1.05-3.11-1.31-5.79.05-11.36,1.7-16.83,4.64-15.36,15.28-26.69,25.85-38.49Zm-114.44-95.88c-3.74.15-7.41.58-11.11,1.29-3.75.73-7.29,2-10.91,3.09-5.09,1.52-9.76,4.02-14.36,6.55-4.51,2.47-8.75,5.44-12.47,9.07-1.22,1.19-2.37,2.62-2.15,4.37.35,2.77,3.28,3.59,5.65,1.61,3.3-2.74,6.62-5.42,10.33-7.61,8.42-4.96,17.31-8.62,27.06-9.94.55-.07,1.24-.58,1.64.08.54.9-.53,1.06-.91,1.52-1.95,2.39-3.5,5.11-4.03,8.05-1.72,9.52,3.68,19.78,15.32,19.45,6.94-.2,13.19-6.82,11.34-14.08-1.2-4.71-6.29-7.6-10.58-5.53-1.87.9-3.43,2.63-2.77,4.88.52,1.79,1.06,4.04,3.63,4.26.48.04,1.12.01,1.43-.27.45-.41.02-1.03-.29-1.35-1.35-1.42-.48-2.59.51-3.5,1.08-1,2.4-.69,3.53.1,1.98,1.37,1.85,3.93-.29,5.85-3.37,3.02-7.19,2.8-10.92,1.06-3.01-1.41-5.16-3.98-5.79-7.27-1.27-6.57,4.99-12.38,10.19-13,13.99-1.67,22.06,11.57,22.25,22.43.01.74-.51,1.69.49,1.96.92.25,2,.42,2.84-.5.63-.68.73-1.46.83-2.33.56-4.98-.25-9.8-2.09-14.37-1.88-4.67-4.99-8.45-9.23-11.35-5.84-3.98-12.4-4.53-19.14-4.52Zm69.55,164.01c-2.17-3.3-4.21-6.53-5.24-10.28-1.79-6.53-.92-13.02.33-19.48,2.15-11.18,5.07-22.18,7.67-33.25,1.59-6.79-1.06-11.75-7.14-12.86-1.85-.34-3.74-.19-5.61.11-4.77.78-4.76.8-1.85,4.57,1.76,2.29,3.47,4.59,3.15,7.79-.43,4.24-1.51,8.35-2.37,12.51-2.6,12.55-6.16,24.9-7.68,37.67-.67,5.65.33,10.86,4.63,15.02,1.02.98,2.18,1.76,3.63,1.44,3.54-.76,7.05-1.62,10.48-3.24Zm-103.3-125.66h0c-1.28.01-2.56-.05-3.84.02-10.6.63-19.53,4.55-25.6,13.6-2.96,4.41-5.15,9.2-5.04,14.72.03,1.33.57,2.28,2.04,2.49,1.6.22,1.44-1.07,1.73-1.97,3.44-10.69,10.59-17.82,21.01-21.71,1.27-.47,3.16-2.07,4.04-.34.75,1.49-1.55,2.26-2.6,3.22-4.41,4-9.11,7.73-12.16,12.99-.59,1.01-1.62,2.4-.98,3.24.75.98,2.34.33,3.57.07,5.17-1.09,9.43-3.83,13.19-7.39,4.67-4.42,8.42-9.59,11.48-15.24,1.48-2.74.99-3.5-2.23-3.69-1.53-.09-3.07-.02-4.6-.02Zm-81.45-32.87c4.18,1.39,8.39,2.67,12.52,4.18,11.57,4.24,21.25,11.03,28.25,21.33,2.46,3.61,4,7.68,5.46,11.77.27.76.37,1.95,1.31,1.99,1.11.05,1.66-1.02,2.09-1.97.78-1.73.6-3.52.18-5.26-2.58-10.92-9.42-18.75-18.54-24.69-9.49-6.18-20.3-7.42-31.27-7.35Zm-59.06,186.43c.02,7.22,2.81,10.7,8.37,11.9,4.52.97,8.25-1.01,11.9-3.23,1.21-.73.66-1.33-.3-1.75-2.45-1.07-4.46-2.71-6.34-4.6-3.19-3.22-5.26-7.08-6.67-11.31-.73-2.2-1.57-1.98-2.82-.5-2.69,3.16-4.04,6.82-4.14,9.48Zm250.94-123.16c0-2.98-2.13-5.09-5.14-5.1-3.93,0-7.68,3.59-7.64,7.33.03,2.99,2.01,5.12,4.8,5.18,3.88.09,7.98-3.72,7.98-7.42Zm-261.65,7.4c-4.56.19-5.4,2.59-5.64,7.32-.12,2.41,3.01,5,5.73,5.01,3.61.01,6.53-2.61,6.58-5.9.05-3.67-2.81-6.43-6.67-6.43Zm112.92,27.75c-4.42.06-8.82.41-13.2.97-1.48.19-2.83.71-2.72,2.37.11,1.71,1.54,2,3.04,1.88,4.4-.33,8.8-.65,13.21-.97,1.52-.11,3.07-.08,4.56-.38,1.01-.21,2.35-.67,2.16-2.07-.16-1.22-1.25-1.75-2.46-1.79-1.53-.04-3.06,0-4.59,0Zm169.21,62.21c.41-.1.82-.19,1.22-.3,5.29-1.47,10.58-2.93,15.87-4.41.41-.11.83-.23,1.18-.46.64-.42,1.31-.93,1.09-1.84-.22-.88-.76-1.54-1.77-1.55-.76,0-1.55-.05-2.29.11-4.98,1.03-9.88,2.34-14.71,3.93-.64.21-1.24.55-1.81.9-.84.53-.98,1.37-.72,2.25.27.93,1.04,1.28,1.94,1.37Zm-120.09-101.69c-5.93-3.33-14.62-.82-16.95,4.74,6.04-.16,11.38-2.35,16.95-4.74Zm139.94,106.41c.66-.34,1.37-.63,1.99-1.04,2.11-1.4,4.22-2.81,6.28-4.28.65-.46,1.99-.69,1.17-1.99-.65-1.04-1.57-1.43-2.83-.93-2.88,1.15-5.27,3.01-7.64,4.93-.76.61-.7,1.43-.37,2.31.26.68.89.68,1.41,1.01Zm27.73-117.33c.17,1.87.78,3.5,2.8,4.05,1.12.31,2.16-.16,2.96-1.01.41-.44.36-.98-.1-1.34-1.91-1.48-1.62-3.34-.98-5.28.17-.5.77-1.03-.02-1.53-.59-.38-1.14-.15-1.67.13-2.03,1.03-2.8,2.81-2.99,4.99Zm-91.59,151.33c4.99,2.41,8.09,2.28,10.98-3.16-3.77.79-7.28,1.9-10.98,3.16Zm122.07-160.08c-1.64-.46-1.94.51-2.03,1.45-.15,1.47,1.13,1.42,1.92,1.27,1.32-.26,3.67,1.17,3.78-.93.11-2.21-2.63-1.15-3.67-1.79Zm-368.4,8.64c2.74-1,5.13-2.63,7.93-4.78-4.19-.19-6.11,2.19-7.93,4.78Z"/>
  <path class="cls-1" d="m422.91,177.06c-1.7,10.17-4.13,19.57-8.68,28.3-2.63,5.03-6.01,9.46-10.82,12.67-2.08,1.39-4.3,2.37-6.76,2.85-3.55.7-6.32-.93-7.06-4.51-1.43-6.93,1.08-12.96,4.95-18.42,5.39-7.6,12.99-12.64,20.97-17.14,2.28-1.28,4.66-2.37,7.4-3.75Z"/>
  <path class="cls-1" d="m383.99,159.57c1.17-14.16,4.5-27.62,12.89-39.42,1.3-1.83,2.92-3.31,5.08-4.12,2.81-1.05,4.67-.08,5.18,2.87.7,4.1-.11,8.16-.67,12.18-1.42,10.23-4.26,20.07-8.86,29.36-1.21,2.45-2.6,4.79-4.73,6.58-1.68,1.41-3.53,2.54-5.79,1.58-2.23-.94-2.87-3.01-3.08-5.2-.12-1.27-.02-2.55-.02-3.83Z"/>
  <path class="cls-4" d="m95.12,53.1c13.23.47,26.29,1.85,38.64,7.15,10.53,4.52,19.91,10.51,26.07,20.49,5.12,8.29,7.35,17.12,4,26.73-.98-3.5-.98-7.17-1.94-10.7-2.43-9-7.56-16-15-21.48-10.44-7.68-22.35-12.11-34.56-15.94-5.82-1.82-11.67-3.63-17.22-6.25Z"/>
  <path class="cls-1" d="m205.95,32.15c-.02,2.99-1.05,4.4-2.77,5.23-7,3.36-13.51,7.5-19.9,11.88-2.95,2.02-7.8.33-8.92-2.95-.49-1.42.63-2.41,1.42-3.33,2.25-2.59,4.98-4.66,7.81-6.56,4.86-3.27,9.71-6.61,15.5-8.08,3.57-.91,6.9,1.49,6.86,3.81Z"/>
  <path class="cls-1" d="m36.84,164.8c1.49.13,3.38.48,4.9,1.89,1.91,1.77,2.45,4.32,1.35,6.46-1.21,2.36-4.54,4.29-6.7,3.84-1.29-.27-2.23-.98-2.07-2.44.25-2.2-.98-2.36-2.64-2.09-2.88.45-5.47,3.01-5.53,5.72-.04,1.97-.89,3.3-2.67,3.9-1.68.57-3.24,0-4.37-1.34-1.22-1.44-1.21-3.19-.5-4.81,2.17-4.99,12.09-11.14,18.22-11.11Z"/>
  <path class="cls-1" d="m425.18,159.89c-.39,3.12-.8,6.24-1.16,9.36-.08.72-.22,1.32-.97,1.62-5.25,2.12-10.22,4.84-15.56,6.98,3.02-2.84,6.14-5.59,9.04-8.56,2.95-3.02,5.86-6.08,8.65-9.41Z"/>
  <path class="cls-6" d="m356.38,111.86c-6.27.56-12.36-.79-18.44-1.91-15.51-2.86-30.92-6.14-45.82-11.46-4.38-1.57-3.62-1.34-2.85-4.96,1.9-8.97,3.8-17.94,5.62-26.93.34-1.66.83-2.58,2.79-2.86,2.93-.43,5.75-1.52,7.99-3.65.56-.53,1.14-1.12.93-1.97-.23-.91-1.08-1.08-1.84-1.04-11.04.54-19.45-4.42-26.37-12.54-.19-.22-.48-.37-.97-.33,1.23,6.95,5.52,11.64,11.26,15.28-2.36.31-5.58-.79-9.43-3.22-9.92-6.27-12.45-18.89-5.59-27.91,6.64-8.73,21.1-8.8,27.59-.14,1.69,2.25,6.37,2.24,8.23.1,8.26-9.52,26.24-10.06,32.62,3.09,5.92,12.2-1.56,27.6-17.11,26.97-8.79-.35-14.96-4.88-19.37-12.19-.85-1.42-1.6-2.91-2.6-4.75-1.42,3.77-.65,6.87.88,9.85,4.84,9.49,16.23,15.95,25.55,14.54,12.7-1.92,20.73-9.77,22.8-22.64,1.43-8.89,5.64-15.5,14.49-18.25,6.37-1.98,12.27-1.09,17.99,2.98,6.93,4.93,9.55,11.49,8.22,19.37-1.63,9.69-7.91,15.75-17.24,18.55-3.9,1.17-7.95,1.43-12.57.92,2.33-1.78,4.59-2.95,6.16-4.9.96-1.18,1.88-2.41,2.74-3.66.34-.49.42-1.21.04-1.69-.52-.65-1.09-.02-1.58.19-3.75,1.57-7.42,3.33-11.45,4.17-4,.83-7.94.69-11.87-.32-1.03-.26-1.94-.42-2.64.76-.74,1.25.11,1.88.77,2.62,1.67,1.89,3.86,3.06,6.07,4.14,1.7.84,1.42,1.58.02,2.33-.89.48-1.86.84-2.95,1.32.31.37.56.65.78.94,2.63,3.47,2.92,2.78-.6,5.21-.86.6-1.18.81-.39,1.83,2.39,3.08,2.34,3.15-.73,5.3-.98.68-1.45,1.29-.38,2.28.3.28.38.79.67,1.07,1.56,1.54,1.07,2.53-.68,3.5-2.78,1.54-2.87,1.72-.73,3.91,1.55,1.59.44,1.97-.68,2.75-.98.68-3.22.57-1.49,3.1.86,1.26-1.8,2.06-2.69,3.47,3.2,1.56,6.63,2.21,10.04,2.89,1.48.29,1.64-.92,1.85-1.9,1.18-5.74,2.36-11.48,3.47-17.24,1.01-5.2,2.15-10.37,2.63-15.67.1-1.13.77-2.22,2.35-1.46,1.14.55,2.32,1.01,3.48,1.51-2.09,8.91-3.62,17.93-5.46,26.88-.82,3.98-.99,8.25-3.52,11.76Zm-47.21-17.04c-.26-1.25-.93-1.96-2.28-1.89-1.18.06-1.71.74-1.6,1.82.12,1.16.84,1.82,2.06,1.76,1.06-.05,1.73-.59,1.82-1.69Zm4.2-21.94c-.19-.99-.9-1.58-2.08-1.54-1.06.03-1.85.54-1.77,1.69.09,1.32,1.16,1.54,2.22,1.55.96,0,1.63-.41,1.63-1.7Zm-2.7,14.56c-.23-1.3-1.1-1.69-2.21-1.72-1.16-.04-1.75.61-1.71,1.71.05,1.31.94,1.62,2.1,1.61,1.15-.02,1.68-.61,1.82-1.6Zm-.78-8.87c-1.09-.03-1.86.3-1.77,1.57.1,1.29.93,1.72,2.09,1.73,1.07,0,1.87-.39,1.79-1.61-.08-1.28-1-1.66-2.11-1.69Z"/>
  <path class="cls-6" d="m279.28,136.83c8.16,3.82,10.93,9.06,9.38,18.89-1.57,9.92-5.96,18.37-14.08,24.64-2.41,1.86-5.14,3.04-8.03,3.72-1.54.36-1.42.92-1.09,2.04,2.14,7.32,5.61,14.05,9.23,20.7,3.78,6.96,7.79,13.79,13.07,19.78,2.94,3.34,6.37,5.35,11.05,4.25-.69,2.5-3.46,4.14-7.14,4.59-5.84.71-10.7-1.16-14.83-5.22-7.79-7.66-12.92-17.03-17.17-26.94-2.01-4.68-3.62-9.51-4.63-14.51-.34-1.68-.9-1.01-1.56-.33-4.53,4.66-5.66,10.2-3.8,16.27,3.61,11.81,9.93,22.14,17.71,31.63,5.03,6.13,10.99,11.21,18.13,14.69,5.99,2.92,12.39,4.26,19.07,2.89,3.89-.8,5.14-2.63,4.94-6.66-.01-.25-.17-.55-.08-.74.43-.91,6.56-1.43,7.2-.64,4.58,5.64,3.26,11.91-3.22,15.29-5.9,3.08-12.36,3.73-18.67,2.72-24.88-3.96-42.49-18.28-54.47-39.89-5.1-9.19-4.6-19.12-2.46-29.09,3.99-18.6,7.58-37.27,11.04-55.97,1.47-7.94,2.89-15.89,4.36-23.82.39-2.12.45-4.25.23-6.37-.31-3.04-2.35-4.11-5.04-2.73-2.58,1.33-4.33,3.55-6.02,5.8-3.52,4.69-5.7,10.02-7.32,15.62-1.13,3.87-1.48,4.08-5.41,4.52-2.28.25-4.55.58-6.82.94-3.1.49-3.99-.19-3.59-3.33,2.17-17.29,9.73-28.63,26.46-34.37,7.82-2.68,15.82-3.86,24.08-2.14,11.32,2.36,18.51,12.02,17.32,23.5-.35,3.38-.75,6.76-2.34,9.87-.68,1.34-1.45,2.42-3.11,1.86-1.77-.6-.86-1.9-.62-2.99,1.11-4.99,2.16-9.96,1.15-15.14-1.5-7.69-9.12-12.09-16.22-9.23-.65.26-1.56.31-1.24,1.49,1.38,5.23.19,10.34-.92,15.4-3.13,14.26-6.42,28.49-9.6,42.75-.83,3.71-1.47,7.46-2.35,11.97,3.56-5.76,6.72-10.88,9.88-15.99,4.47-7.23,8.95-14.46,13.42-21.69.74-1.19,1.29-2.06,3.15-1.32,2.15.85,1.43,1.98.97,3.29Zm-13.88,41.62c.51-.21.92-.31,1.24-.54,6.69-4.91,10.74-11.44,11.97-19.66.48-3.19-.11-6.21-1.61-9.1-.74-1.42-1.08-1.58-2.11-.2-4.25,5.74-8,11.81-11.95,17.74-1.97,2.97-3.77,6.05-5.65,9.08.17.13.33.26.5.38,2.61-2.44,5.23-4.88,7.96-7.42.86,1.85-.07,3.3-.05,4.79.02,1.57-.65,3.12-.3,4.92Z"/>
  <path class="cls-6" d="m52.64,241.11c-.06,4,.92,9.94,4.95,15.06,5.07,6.44,12.83,8.41,20.32,5.15,8.41-3.66,14.13-10.18,18.94-17.67,2.16-3.37,4.05-6.89,5.58-10.59.28-.68.37-1.52,1.28-1.72,3.15-.68,6.3-1.41,9.47-1.99,1.51-.28,1.07,1.05,1.04,1.74-.22,5.26-1.5,10.31-3.93,14.95-7.89,15.1-20.73,23.19-37.3,25.76-7.45,1.16-14.68.15-21.29-3.41-9.9-5.32-14.51-14.26-15.8-25.05-1.82-15.16,2.33-29.27,8.74-42.67,9.72-20.3,23.64-37.37,41.79-50.78,8.73-6.45,18.36-10.57,29.56-10.24,13.97.4,24.61,10.49,23.98,24.45-.81,17.88-9.47,31.51-25.3,40.16-4.86,2.65-10.35,2.96-15.65,1.32-7.07-2.19-10.61-7.71-11.26-14.66-1.11-11.83,2.65-21.83,12.87-28.71,3.01-2.03,6.35-3.34,10.09-2.99,2.12.19,3.95.92,4.62,3.31.63,2.24-.88,3.26-2.29,4.36-8.51,6.66-12.09,15.54-11.7,26.16.09,2.54.65,5.11,3.21,6.25,2.45,1.09,4.83.17,6.95-1.31,2.54-1.77,4.79-3.85,6.44-6.48,5.72-9.17,9.15-18.96,8.06-29.96-1.03-10.4-9.62-15.97-19.56-12.74-8.42,2.74-14.72,8.45-20.35,14.9-13.88,15.94-23.94,34.06-30.11,54.29-2.07,6.78-3.3,13.74-3.36,23.12Z"/>
  <path class="cls-6" d="m172.13,228.73c-2.54,2.89-4.99,5.45-8.38,6.92-2.52,1.09-5.15,1.56-7.69.65-1.59-.57-2.11.05-2.84,1.09-2.73,3.92-5.54,7.76-9.67,10.42-6.39,4.12-12.87,2.78-16.3-3.52-1.31-2.41-2.07-5.03-2.29-7.76-.88-11.06,1.01-21.68,5.08-31.96.75-1.9,1.71-3.68,3.08-5.25,4.02-4.6,6.68-10.01,9.29-15.48,3.38-7.09,7.58-13.53,15.09-17.01,4.71-2.18,9.25-2.92,13.44,1.13.39.38,1.07.64,1.61.64,1.35.01,1.42.84,1.54,1.85.49,4.06-.84,7.73-2.32,11.37-5.3,13.09-9.89,26.38-12.15,40.38-.28,1.76-.68,3.53-3.06,3.77-1.34.14-1.24,1.18-.83,2.14.7,1.65,2.89,2.39,5.09,1.6,1.44-.52,2.76-1.33,3.83-2.46,3.21-3.41,5.77-6.71,5.72-12.1-.08-9.66,2.8-18.91,6.18-27.94,2.69-7.19,5.64-14.23,10.39-20.34,3.03-3.9,6.66-7.05,11.56-8.43,2.27-.64,4.6-.83,6.75.1,1.53.66,2.11.29,2.87-1.05,3.07-5.39,7.45-9.25,13.58-10.82,3.14-.81,6.17-.54,8.58,1.81,1.32,1.29,2.32,1.08,3.45,0,1.4-1.33,2.41-.8,3.65.39,1.26,1.22,1.23,2.16.18,3.42-4.29,5.13-6.88,11.07-8.35,17.55-.17.77-.57,1.51.36,2,4.43,2.31,4.71,6.35,3.77,10.38-2.24,9.63-5.15,19.07-11.2,27.13-4.55,6.06-10.45,10.17-18.07,11.47-1.16.2-2.56.57-3.52.13-2.94-1.33-4.13.39-5.57,2.42-2.62,3.71-5.69,7.04-9.91,9-5.91,2.73-9.14,1.82-12.96-3.64Zm-4.61-45.95c-6.29.81-7.66.02-10.34-6.3-.62-1.45-1.29-1.04-2.06-.27-2,2.02-3.45,4.41-4.54,7.02-5.11,12.24-9.19,24.81-11.7,37.85-.87,4.5-1.6,9.06-.65,13.68.69,3.38,2.76,4.29,5.45,2.32,2.56-1.89,4.25-4.41,4.84-7.53,1.36-7.16,2.27-14.43,5.27-21.16,3.97-8.9,9.38-17.03,13.75-25.61Zm60.04-19.35c-5.09,2.2-8.14,1.6-10.28-1.85-.53-.85-.79-1.86-1.21-2.78-.26-.57-.34-1.29-1.39-.78-2.29,1.12-4.06,4.47-3.44,6.88,1,3.86,1.01,7.74.33,11.65-1.57,9.05-4.62,17.73-6.64,26.67-.99,4.39-1.11,4.47-5.41,5.06-1.31.18-1.74.53-1.48,1.93.61,3.29,2.82,4.76,6.1,3.91,2.3-.6,4.19-1.85,5.82-3.51,3-3.04,4.88-6.75,6.14-10.76,3.78-12,6.34-24.38,11.46-36.42Zm-27.66,11.3c-.18-2.05.44-4.73-2.35-5.49-2.48-.67-3.99,1.29-5.34,3.06-1.45,1.9-2.62,3.98-3.59,6.16-3.97,8.89-6.16,18.29-7.9,27.8-.73,4-1.65,8.02-.5,12.11.95,3.38,3.68,4.33,6.42,2.13,2.45-1.96,3.75-4.68,4.19-7.67,1.26-8.59,3.94-16.81,6.29-25.13,1.19-4.24,2.57-8.45,2.79-12.98Z"/>
  <path class="cls-6" d="m83.12,298.57c-11.65.04-21.14-1.03-30.27-4.46-1.15-.43-2.77-.67-2.12-2.48.63-1.78.53-4.18,3.13-4.63.92-.16,1.87-.24,2.8-.24,26.54.05,51.62-6.66,76.07-16.31,24.99-9.87,49.21-21.47,73.64-32.61,5.72-2.61,11.48-5.13,17.16-7.84,1.59-.76,2.49-.39,3.43.86,3.07,4.09,6.13,8.19,9.28,12.21,1.22,1.56.76,2.09-.9,2.8-13.12,5.57-26.23,11.15-39.28,16.9-17.56,7.73-35.09,15.5-53.03,22.31-13.27,5.04-26.82,9.12-40.79,11.65-6.95,1.26-13.99,1.98-19.11,1.84Z"/>
  <path class="cls-2" d="m255.12,291.24c-2.35.15-4.38-1.07-6.58-1.57-8.24-1.88-16.51-1.54-24.82-.98,1.19-.68,2.38-1.37,3.57-2.05,12.05-.95,24.06-2.37,36.16-2.53,11.41-.15,22.08-3.47,32.55-7.66,3.72-.9,7.59-.48,11.34-1.39,4.78-1.17,8.99-3.46,13.12-5.99,5.23-1.07,10.39-2.59,15.83-2.26,5.92.35,11.49,2.13,17.01,4.15,7.91,2.9,15.82,5.87,24.5,4.97-.83,5.83-3.45,10.73-7.75,14.73-5.25-3.61-10.99-5.98-17.3-6.97.97,1.76,2.76,2.15,4.32,2.82,4.11,1.77,8.09,3.9,12.56,4.75-1.85,2.11-3.86,4.01-6.53,5.07-8.25-3.31-16.74-3.15-25.32-1.84,7.74,1.18,15.72.43,23.28,2.99-5.58,3.06-11.46,5.08-17.9,5.14-2.25.12-3.77-1.89-5.91-2.06-5.27-.42-10.39.43-15.42,2.15h17.6c-5.43.19-10.81.81-16.17,1.82h5.35c-4.65.76-9.34.61-13.98.18-5.13-.47-10.19-.04-15.26.56-.65.08-1.78-.01-1.69,1.07.04.57.58,1.13,1.43,1.22,5.9.69,11.61,2.37,17.55,2.93,9.95.94,19.9,1.43,29.82.05,12.33-1.72,23.93-5.38,32.93-14.55,7.74-7.89,10.56-17.22,7.22-28.07-1.13-3.68-3.5-6.72-5.07-10.17,9.32,9.22,12.02,25.24,1.91,37.47-6.23,7.54-14.41,12.04-23.57,14.93-15.19,4.79-30.64,4.73-46.18,2.23-9.85-1.58-19.31-4.56-28.51-8.4,1-.62,2.15-.27,3.21-.48,3.23-.64,6.68-.47,9.55-2.48,2.23.12,4.34,1.58,6.67.59,3.15.84,6.21,0,9.29-.6-3.28,0-6.56,0-9.83,0-1.72-.42-3.43-.83-5.15-1.25,9.9-.78,19.71-2.14,29.5-3.69-.02-.22-.05-.44-.07-.66-6.32.45-12.65.9-18.97,1.35-.02-.2-.04-.39-.06-.59,10.66-1.89,21.32-3.78,32.36-5.74-6.1-.63-11.8.33-17.51.09,9.82-2.8,19.79-1.96,30.33-.73-1.54-1.57-2.91-1.77-4.2-2.1-5.53-1.43-11.16-1.27-16.77-.79-4.34.38-8.57,1.46-12.67,2.93-8.98,3.23-18.05,6.11-27.39,8.11-4.77-.94-9.13-2.98-13.53-4.93,2.22-1.29,4.77-1.02,7.17-1.45,10.47-1.89,20.15-6.16,30.07-9.72,6.46-2.32,12.96-4.64,19.88-4.91,10.74-.43,20.73,2.62,30.33,7.19.99.47,1.85,1.34,3.39,1.34-2.08-2.34-4.56-3.51-6.96-4.73-8.53-4.36-17.52-7.03-27.21-6.41-7.55.48-14.65,3.02-21.7,5.51-13.26,4.68-26.48,9.47-40.49,11.48-2.79-.77-5.28-2.28-7.97-3.3-.56-.21-1.35-.61-1.8.12-.13.21.38.81.59,1.24l-10.13,1.88Zm99.3,8.1c-1.48-2.55-5.59-3.3-8.67-1.61,2.9,1.04,5.89.55,8.67,1.61Zm-41.51,4.19c-1.3-.58-2.61-.59-4.35-.38,1.66,1.12,3,.86,4.35.38Z"/>
  <path class="cls-3" d="m143.92,110.59c.31,3.61,3.41,4.94,5.68,6.95-.87.68-1.68,1.23-.09,2.17,2.04,1.21,3.92,2.66,6.06,3.72,7.94,3.97,15.86,8,23.8,11.97.82.41,1.7,1.2,2.85.23-1.34-1.99-3.62-2.9-4.99-4.73,5.06,1.65,9.61,4.41,14.45,6.54.46.2.85.64.75,1.22-.1.58-.62.47-1.02.45-3.54-.19-6.4.53-7.2,4.68-.19,1.01-1.12.33-1.67.06-8.29-4.13-16.54-8.33-24.86-12.41-4.57-2.24-9.04-4.85-13.96-6.15-4.02-1.06-8.23-.67-12.39.03-5.2.87-9.61,3.84-14.67,5.12-2.71.69-4.96.22-7-1.05-8.02-4.97-15.83-10.26-23.87-15.18-5.62-3.45-11.19-6.98-16.69-10.61-5.61-3.7-6.42-5.72-3.45-11.85,3.79-7.82,7.92-15.47,11.9-23.2,3.59-1.57,6.75-.34,9.83,1.49,1.02.6,2.09,1.13,3.15,1.66,14.64,7.26,29.3,14.48,43.91,21.81,2.27,1.14,4.54,2.48,5.91,4.81.77,3.81,1.34,7.67,2.54,11.38.13.4-.15,1.6,1.04.9Zm-30.23-9.84c2.2,1.35,4.13,3.64,7.18,2.12,4.26-4.37,4.13-6.47-1.19-9.19-9.52-4.87-19.13-9.55-28.49-14.74-3.7-2.05-5.02-1.5-7.16,1.71-1.3,2.88-.68,4.88,2.27,6.44,5.53,2.92,11.08,5.81,16.7,8.56,3.54,1.74,6.88,3.91,10.68,5.08h0Zm-3.33,15.34c.56-.16,1.14-.3,1.69-.5,3.17-1.15,4.57-5.17,2.46-7.54-.96-1.08-2.35-1.88-3.68-2.5-9.08-4.22-17.85-9.05-26.72-13.68-2.52-1.32-4.86-.99-6.29.94-1.68,2.27-1.45,4.08.8,6.44.3,1.05,1.28,1.31,2.08,1.73,7.66,4.08,15.3,8.21,23.03,12.15,2.15,1.09,4.12,2.67,6.64,2.97Z"/>
  <path class="cls-6" d="m352.14,142.46c-10.56,11.8-21.21,23.14-25.85,38.49-1.65,5.47-3.01,11.04-1.7,16.83.24,1.07.47,2.22,1.05,3.11,1.26,1.93.37,2.51-1.42,2.91-1.82.41-3.63.89-5.38,1.52-4.44,1.59-6.05-.79-6.46-4.84-.45-4.47.81-8.78,1.76-13.09,3.01-13.59,6.07-27.16,9.16-40.73.7-3.09.34-5.89-1.66-8.41-.53-.66-1-1.37-1.5-2.06-1.65-2.32-1.55-2.6,1.29-3.09,1.42-.24,2.86-.48,4.3-.54,7.86-.3,11.54,4.09,9.88,11.76-.9,4.13-1.88,8.24-2.94,12.87,5.32-6.68,10.44-12.87,14.99-19.5,1.63-2.38,2.06-5,.94-7.76-.28-.69-.93-1.53.31-1.77,3.32-.66,6.63-1.73,10.08-1.02,3.91.81,5.94,3.49,6,8.02.09,5.75-2.05,10.98-4.02,16.22-2.52,6.7-5.08,13.37-5.08,20.67,0,4.91,1.23,9.43,4.65,13.13,1.17,1.27,1.37,1.96-.53,2.75-2.93,1.22-5.95,2-9.05,2.31-4.5.45-8.02-3.38-8.93-9.28-1.13-7.26.79-13.98,3.48-20.58,2.15-5.26,4.72-10.36,6.4-15.81.17-.55.58-1.05.22-2.14Z"/>
  <path class="cls-3" d="m374.92,231.32c3.83,2.3,7.59,4.72,12.16,6.77-1.69.76-3.03.34-4.28.53-1.09.17-2.42.35-2.73,1.46-.37,1.31,1.01,1.83,1.91,2.37,7.39,4.43,15.54,5.22,23.8,4.24,15.56-1.85,27.13-9.56,33.62-24.18.24-.54.67-1,.85-1.55.45-1.32,1.55-.83,2.38-.84,1.05,0,.72.94.8,1.56.47,3.78-1.16,7.17-2.39,10.5-2.44,6.61-5.39,13.04-9.99,18.52-6.14,7.33-13.7,12.55-22.82,15.55-3.29,1.08-6.69,1.7-9.98,2.71-1.09.33-1.79.37-2.29-1.03-1.67-4.68-3.7-9.2-7.04-12.98-6.16-6.98-13.58-12.06-22.26-15.58-8.35-3.38-17.01-4.33-25.83-4.37-8.17-.04-16.29.97-24.26,2.72-4.72,1.03-9.34,2.5-14.82,3.26,2.4-3.25,4.03-6.3,5.77-9.3.24-.42,1.23-.41,1.87-.6,1.28.57,2.6.59,3.96.36,5.32-.89,10.66-1.7,15.98-2.64,11.74-2.07,23.49-2.84,35.28-.41,3.24,1.66,6.9,1.81,10.3,2.92Zm49.13,18.55c1.68-.71,2.52-2.34,3.78-3.5.36-.33.43-.96.03-1.37-.37-.39-.73-.05-1.09.18-1.95,1.22-4.13,2.05-5.89,3.57-6.32,2.87-12.83,5-19.84,5.13-1.68.03-3.12.91-3.25,2.29-.14,1.5,1.18,2.56,2.86,2.98,3.91,1,7.62.04,11.17-1.29,4.63-1.74,8.95-4.12,12.24-7.98Z"/>
  <path class="cls-3" d="m227.29,286.65c-1.19.68-2.38,1.37-3.57,2.05-7.37,1.4-14.63,3.29-21.86,5.28-3.98,1.1-8.11,2.16-11.78,3.77-9.58,4.21-19.49,7.53-29.27,11.13-7.27,2.67-14.83,4.68-22.36,6.71-13.04,3.52-26.22,3.8-39.42,2.56-8-.75-16.02-2.34-23.43-5.88-.76-.36-1.48-.8-1.93-1.05,9.48-.18,19.17.53,28.91-.78,7.82-1.05,15.5-2.64,23.12-4.5,7.48-1.83,14.74-4.52,21.9-7.42,5.59-2.27,11.22-4.45,16.84-6.67,2.73.03,5.2-.89,7.59-2.09,11.79-2.84,23.82-4.35,35.76-6.3.99.02,1.97.02,2.96.06,1.3.04,2.7-.16,3.36,1.41.88,1.37,2.25,1.63,3.73,1.64,3.16.03,6.31.06,9.47.08Zm-36.9,3.96c1.05.17,2.29.22,2.32-1.1.03-1.46-1.35-.72-2.1-.78-1.17-.1-2.34.05-3.26.92-7.29.7-14.17,2.83-20.88,5.71-6.13,2.64-12.2,5.32-18.74,7.07-8.42,2.26-16.92,4.04-25.44,5.79-4.48.92-8.96,1.82-13.55,2.02-.65.03-1.45.03-1.79.86.85.58,1.79.58,2.72.5,6.24-.57,12.47-.96,18.67-2.2,5.54-1.11,11.09-2.21,16.57-3.54,8.91-2.16,17.33-5.82,25.79-9.31,6.38-2.63,13.07-4.17,19.7-5.94Z"/>
  <path class="cls-6" d="m381.55,257.76c1.57,3.45,3.94,6.48,5.07,10.17,3.34,10.86.53,20.19-7.22,28.07-9,9.17-20.61,12.83-32.93,14.55-9.92,1.38-19.86.89-29.82-.05-5.94-.56-11.66-2.25-17.55-2.93-.84-.1-1.38-.66-1.43-1.22-.08-1.08,1.04-.99,1.69-1.07,5.07-.6,10.12-1.03,15.26-.56,4.64.42,9.33.57,13.98-.18,0,0,.14-.02.14-.02,1.65.3,3.27.14,4.88-.29.93-.06,1.87-.04,2.78-.18,2.27-.34,4.74.18,6.75-1.41,6.44-.06,12.32-2.07,17.9-5.14.76-.23,1.6-.35,2.04-1.14,2.67-1.05,4.68-2.96,6.53-5.07.14-.2.28-.4.42-.6,4.3-4.01,6.92-8.9,7.75-14.73.03-1.09.05-2.18.08-3.27.02-1.83.34-3.68-.43-5.44-.06-.9-.28-1.71-1.16-2.18-.31-1.41-.52-2.87-1.56-3.99-.69-1.47-1.4-2.91-2.98-3.64l.04.07c.4-.33.06-.55-.12-.8-2.22-3.21-5.45-4.96-8.76-6.91-4.95-2.91-10.23-3.96-15.71-4.66-8.57-1.1-16.84,1.14-25.2,2.35-.46.15-.92.31-1.37.46-1.12-.89-2.24-1.78-3.67-2.92,3.3-1.27,6.44-1.76,9.51-2.26,9.28-1.51,18.63-1.93,27.91-.09,10.13,2.02,19.14,6.32,26.3,14,0,0-.09.14-.09.14l.15-.05c.12.16.24.32.36.47,0,0-.07.18-.07.18l.19-.04c.11.13.23.27.34.4Z"/>
  <path class="cls-3" d="m237.7,46.58c6.74-.01,13.3.54,19.14,4.52,4.24,2.89,7.36,6.67,9.23,11.35,1.84,4.57,2.64,9.39,2.09,14.37-.1.87-.2,1.65-.83,2.33-.84.92-1.92.75-2.84.5-.99-.27-.47-1.22-.49-1.96-.19-10.86-8.26-24.1-22.25-22.43-5.2.62-11.46,6.43-10.19,13,.63,3.29,2.78,5.86,5.79,7.27,3.73,1.74,7.55,1.96,10.92-1.06,2.14-1.92,2.27-4.47.29-5.85-1.14-.79-2.45-1.1-3.53-.1-1,.92-1.86,2.08-.51,3.5.3.32.73.94.29,1.35-.31.28-.95.31-1.43.27-2.57-.22-3.11-2.47-3.63-4.26-.65-2.25.9-3.97,2.77-4.88,4.29-2.07,9.38.82,10.58,5.53,1.85,7.26-4.4,13.88-11.34,14.08-11.64.33-17.04-9.93-15.32-19.45.53-2.94,2.09-5.66,4.03-8.05.38-.46,1.45-.62.91-1.52-.4-.67-1.08-.16-1.64-.08-9.75,1.32-18.64,4.98-27.06,9.94-3.71,2.18-7.03,4.86-10.33,7.61-2.38,1.98-5.3,1.16-5.65-1.61-.22-1.74.93-3.17,2.15-4.37,3.71-3.63,7.96-6.6,12.47-9.07,4.6-2.53,9.27-5.02,14.36-6.55,3.62-1.08,7.16-2.36,10.91-3.09,3.7-.71,7.37-1.14,11.11-1.29Z"/>
  <path class="cls-6" d="m307.25,210.6c-3.43,1.62-6.94,2.48-10.48,3.24-1.45.31-2.62-.46-3.63-1.44-4.3-4.16-5.3-9.36-4.63-15.02,1.52-12.76,5.08-25.12,7.68-37.67.86-4.15,1.94-8.26,2.37-12.51.32-3.2-1.39-5.5-3.15-7.79-2.91-3.77-2.92-3.8,1.85-4.57,1.86-.3,3.76-.45,5.61-.11,6.07,1.11,8.73,6.06,7.14,12.86-2.59,11.08-5.52,22.08-7.67,33.25-1.24,6.46-2.12,12.95-.33,19.48,1.03,3.75,3.07,6.98,5.24,10.28Z"/>
  <path class="cls-3" d="m68.61,119.65c1.44,1.77,1.04,4.07,1.67,6.08.26.83-.05,2.01-1.07,2.34-.87.29-1.62-.31-2.11-1.08-.88-1.42-1.74-2.86-2.62-4.28-2.78-4.44-6.47-7.55-11.95-7.81-5.78-.28-10.37,2.3-13.21,7.04-2.48,4.12-2.15,8.96-.03,13.24,2.99,6.05,8.36,9.2,14.95,8.18,3.98-.61,6.83-3.17,9.14-6.21.87-1.14,1.84-1.24,2.57-.7,3.2,2.36,6.76,1.88,10.32,1.63.7.17,1.69-.09,1.63,1.15-2.53,2.32-5.72,3.51-8.82,4.7-1.98.76-3.48,1.96-5.04,3.22-3.69,2.98-7.99,4.52-12.65,4.23-8.57-.54-15.9-6.12-18.62-15.22-2.12-7.09-1.77-13.98,2.05-20.51.6-1.03,1.36-1.9,2.17-2.75.52-.23,1.08-.39,1.55-.7,7.5-4.89,19.19-4.23,27.11,3.44.64,1.6,1.63,2.94,2.97,4.02Z"/>
  <path class="cls-4" d="m203.95,84.93c1.53,0,3.07-.08,4.6.02,3.22.19,3.71.95,2.23,3.69-3.05,5.65-6.8,10.82-11.48,15.24-3.76,3.55-8.02,6.3-13.19,7.39-1.23.26-2.82.91-3.57-.07-.64-.84.39-2.23.98-3.24,3.06-5.26,7.75-8.99,12.16-12.99,1.05-.96,3.36-1.73,2.6-3.22-.87-1.73-2.77-.13-4.04.34-10.42,3.89-17.57,11.02-21.01,21.71-.29.9-.12,2.19-1.73,1.97-1.47-.2-2.01-1.16-2.04-2.49-.12-5.51,2.08-10.31,5.04-14.72,6.07-9.05,15-12.97,25.6-13.6,1.27-.08,2.56-.01,3.84-.01h0Z"/>
  <path class="cls-2" d="m214.1,284.92c-.66-1.57-2.06-1.37-3.36-1.41-.98-.03-1.97-.04-2.96-.06.89-.79,2.01-.76,3.09-.91,5.54-.81,10.9-2.43,16.35-3.63,4.24.48,8.24-.82,12.26-1.78,9.96-2.38,19.96-4.68,29.61-8.18.95.47,1.89.94,2.84,1.41-.1.92-.91.88-1.51,1.12-3.96,1.62-8.18,2.17-12.35,2.92-.99.18-2.08.15-3.19,1.27,7.66.86,14.4-.87,20.99-3.52,3.19,1.23,6.4,2.38,9.8,2.88-.08.44-.3.71-.72.94-4.99,2.77-10.36,4.16-16.04,4.53-5.51.36-11.02.7-16.51,1.18-8.7.76-17.39,1.67-26.1,2.45-4.06.36-8.13.54-12.19.81Z"/>
  <path class="cls-6" d="m227.22,278.91c-5.45,1.21-10.81,2.83-16.35,3.63-1.08.16-2.2.13-3.09.91-11.95,1.95-23.97,3.45-35.76,6.3-.33-.17-.67-.34-1-.52,3.69-1.78,7.63-2.68,11.58-3.71,22.92-6,46.63-8.98,68.73-18.06,2.82-1.16,5.67-2.27,8.48-3.46.6-.25,1.17-.55,1.59.05.89,1.27,2.39,1.49,3.57,2.25.46.84.05,1.09-.74,1.35-4.52,1.5-8.98,3.21-13.55,4.58-7.79,2.33-15.64,4.47-23.47,6.68Z"/>
  <path class="cls-4" d="m122.51,52.07c10.96-.07,21.78,1.18,31.27,7.35,9.12,5.94,15.95,13.77,18.54,24.69.41,1.74.59,3.54-.18,5.26-.43.95-.97,2.02-2.09,1.97-.94-.04-1.04-1.23-1.31-1.99-1.46-4.09-3-8.16-5.46-11.77-7-10.3-16.68-17.09-28.25-21.33-4.13-1.51-8.35-2.8-12.52-4.18Z"/>
  <path class="cls-2" d="m377.45,267.22c.77,1.76.45,3.62.43,5.44-6.63.2-13.04-1.04-19.3-3.07-11.76-3.82-23.54-7.1-36-3.39.9-1.87,1.79-3.75,2.69-5.62,1.36-.48,2.75-.9,4.07-1.45,4.49-1.88,8.96-1.55,13.42.07,3.67,1.34,7.35,2.66,11,4.05,6.22,2.36,12.51,4.44,19.22,4.73,1.49.06,3.23.97,4.47-.76Z"/>
  <path class="cls-2" d="m320.62,247.92c.46-.15.92-.31,1.37-.46.26.41.62.37,1.07.37,6.11-.04,12.23-.09,18.34-.01,11.09.14,20.98,4.15,30.37,9.67,0,0-.04-.07-.04-.07.07,1.09-.6.72-1.17.61-5.26-.98-10.53-1.95-15.79-2.9-6.52-1.18-13-2.77-19.64-.41-3.19,1.14-6.53,1.87-9.8,2.78.37-4.15-2.3-6.8-4.72-9.57Z"/>
  <path class="cls-5" d="m325.34,257.48c3.27-.91,6.61-1.64,9.8-2.78,6.64-2.36,13.12-.77,19.64.41,5.27.95,10.53,1.93,15.79,2.9.57.11,1.24.47,1.17-.61,1.59.73,2.3,2.18,2.98,3.64-7.22.16-14.06-2.14-21.07-3.33-2.16-.36-4.31-1.21-7.02-.58,4.62,1.74,8.78,3.41,13.01,4.87,5.38,1.86,10.82,3.5,16.64,3.02.87.47,1.1,1.28,1.16,2.18-1.23,1.72-2.97.82-4.46.76-6.71-.29-13-2.37-19.22-4.73-3.65-1.38-7.33-2.71-11-4.05-4.46-1.62-8.92-1.95-13.42-.07-1.33.56-2.72.97-4.07,1.45-.14-1.04-.22-2.07.07-3.09Z"/>
  <path class="cls-5" d="m214.1,284.92c4.07-.26,8.14-.45,12.19-.81,8.7-.77,17.39-1.68,26.1-2.45,5.5-.48,11.01-.82,16.51-1.18,5.67-.37,11.04-1.76,16.04-4.53.42-.23.64-.51.72-.94,3.47.34,6.94.66,10.34,1.45-10.47,4.18-21.14,7.51-32.55,7.66-12.1.16-24.12,1.58-36.16,2.53-3.16-.03-6.31-.06-9.47-.08-1.48-.01-2.85-.27-3.73-1.64Z"/>
  <path class="cls-4" d="m356.38,111.86c2.53-3.51,2.7-7.78,3.52-11.76,1.84-8.96,3.37-17.98,5.46-26.88,4.2,1.02,4.87,1.86,4.11,6.03-1.32,7.24-2.36,14.53-3.89,21.74-.73,3.41-1.62,6.82-2.03,10.29-.13,1.1-.62,1.38-1.41,1.08-1.89-.73-3.85-.25-5.76-.51Zm9.86-27.19c1.11-1.01.74-1.95.09-2.9-.42.71-1.19-.6-1.43.17-.39,1.25.5,1.99,1.33,2.74Z"/>
  <path class="cls-4" d="m63.45,238.5c.1-2.66,1.45-6.32,4.14-9.48,1.26-1.48,2.09-1.7,2.82.5,1.41,4.23,3.48,8.09,6.67,11.31,1.87,1.89,3.88,3.53,6.34,4.6.96.42,1.51,1.01.3,1.75-3.65,2.21-7.38,4.2-11.9,3.23-5.56-1.2-8.35-4.68-8.37-11.9Zm9.71,8.17c.78.02,1.67.02,2.04-.75.39-.81-.53-1.1-.95-1.59-1.1-1.29-2.22-2.58-3.22-3.95-.99-1.36-1.66-.83-2.22.28-1.41,2.77.95,6.01,4.35,6.02Z"/>
  <path class="cls-6" d="m140.35,98.32c-1.38-2.33-3.64-3.67-5.91-4.81-14.61-7.33-29.27-14.55-43.91-21.81-1.06-.53-2.13-1.05-3.15-1.66-3.08-1.83-6.24-3.06-9.83-1.49,2.08-3.22,4.78-4.03,8.51-2.23,8.99,4.35,17.94,8.79,26.89,13.22,7.66,3.8,15.31,7.62,22.94,11.47,3.49,1.76,6.17,4.21,6.42,8.46-1.12.41-.76-1.7-1.96-1.16Z"/>
  <path class="cls-3" d="m211.49,271.31c4.92-1.91,9.87-3.75,14.75-5.75,8.03-3.3,16.25-6.17,23.93-10.29.71-.38,1.22-.22,1.81.31,1.31,1.17,2.69,2.26,3.64,3.85-7.49,3.2-14.94,6.46-22.77,8.45-6.4,1.63-12.69,3.82-19.3,4.57-.53-.66-2.41,1.1-2.07-1.15Z"/>
  <path class="cls-6" d="m364.62,228.4c-11.79-2.44-23.54-1.67-35.28.41-5.32.94-10.65,1.75-15.98,2.64-1.36.23-2.68.21-3.96-.36,6.98-3.1,14.44-4.36,21.89-5.58,10.25-1.67,20.53-2.08,30.74.27,2.39.55,4.69,1.49,7.03,2.25-1.4,1.08-2.98.01-4.45.37Z"/>
  <path class="cls-5" d="m322.59,266.2c12.46-3.72,24.24-.43,36,3.39,6.25,2.03,12.67,3.27,19.3,3.07-.03,1.09-.05,2.18-.08,3.27-8.68.9-16.59-2.07-24.5-4.97-5.52-2.02-11.09-3.79-17.01-4.15-5.43-.33-10.6,1.19-15.83,2.26.05-1.44,1.03-2.2,2.12-2.88Z"/>
  <path class="cls-6" d="m314.39,115.34c0,3.7-4.1,7.51-7.98,7.42-2.79-.07-4.76-2.2-4.8-5.18-.04-3.74,3.7-7.33,7.64-7.33,3.01,0,5.14,2.11,5.14,5.1Z"/>
  <path class="cls-3" d="m52.73,122.74c3.86,0,6.72,2.76,6.67,6.43-.04,3.29-2.97,5.91-6.58,5.9-2.72-.01-5.85-2.61-5.73-5.01.24-4.73,1.08-7.14,5.64-7.32Zm2.71,6.1c.16-1.78-.83-2.39-2.26-2.47-1.87-.1-2.21,1.4-2.34,2.69-.19,1.84,1.36,2.08,2.7,2.18,1.82.13,1.91-1.21,1.91-2.4Z"/>
  <path class="cls-2" d="m177.22,130.9c1.37,1.83,3.65,2.74,4.99,4.73-1.14.97-2.03.18-2.85-.23-7.94-3.97-15.85-8-23.8-11.97-2.14-1.07-4.02-2.51-6.06-3.72-1.58-.94-.78-1.49.09-2.17,7.15,3.44,14.3,6.88,21.46,10.32.5.74,1.24.98,2.08,1.02.12,0,.24.04.34.12.21.37.55.49.95.49,0,0,.15.08.15.08-.27,2.64,1.51.76,2.31,1.05.13.06.24.15.33.27Z"/>
  <path class="cls-6" d="m165.66,150.49c1.53,0,3.06-.03,4.59,0,1.21.03,2.3.57,2.46,1.79.19,1.4-1.15,1.85-2.16,2.07-1.48.31-3.03.27-4.56.38-4.4.32-8.81.64-13.21.97-1.5.11-2.93-.17-3.04-1.88-.11-1.66,1.23-2.18,2.72-2.37,4.38-.56,8.78-.91,13.2-.97Z"/>
  <path class="cls-6" d="m334.86,212.7c-.9-.1-1.67-.44-1.94-1.37-.26-.88-.12-1.72.72-2.25.57-.36,1.18-.69,1.81-.9,4.83-1.59,9.73-2.9,14.71-3.93.74-.15,1.52-.12,2.29-.11,1.01.01,1.55.67,1.77,1.55.22.91-.45,1.41-1.09,1.84-.34.23-.77.35-1.18.46-5.29,1.48-10.58,2.94-15.87,4.41-.4.11-.81.2-1.22.3Z"/>
  <path class="cls-5" d="m227.22,278.91c7.83-2.22,15.68-4.35,23.47-6.68,4.56-1.37,9.02-3.08,13.55-4.58.79-.26,1.2-.51.74-1.35,1.79.24,2.26,2.54,4.12,2.65-9.66,3.5-19.66,5.8-29.62,8.18-4.01.96-8.02,2.26-12.26,1.78Z"/>
  <path class="cls-6" d="m65.63,115.62c-7.92-7.67-19.61-8.33-27.11-3.44-.47.31-1.03.47-1.55.7,7.69-9.85,24.29-7.1,29.63,2.7-.32.02-.64.03-.97.05Z"/>
  <path class="cls-4" d="m214.78,111.01c-5.57,2.38-10.91,4.58-16.95,4.74,2.33-5.56,11.01-8.06,16.95-4.74Z"/>
  <path class="cls-5" d="m297.97,301.03c-2.87,2.01-6.32,1.84-9.55,2.48-1.06.21-2.2-.14-3.21.48-2.67-1.88-6.17-1.94-8.73-4.05,4.46.12,8.91.04,13.33-.65,2.72.58,5.44,1.16,8.16,1.74Z"/>
  <path class="cls-2" d="m289.81,299.28c-4.42.69-8.87.77-13.33.65-1.99-.7-3.98-1.39-5.97-2.09.04-.34.07-.77.5-.75,3.5.12,6.79-1.45,10.3-1.23,2.91.96,5.76,2.06,8.51,3.41Z"/>
  <path class="cls-6" d="m354.72,217.42c-.52-.32-1.15-.33-1.41-1.01-.33-.88-.39-1.7.37-2.31,2.37-1.91,4.77-3.78,7.64-4.93,1.27-.5,2.18-.11,2.83.93.82,1.3-.52,1.53-1.17,1.99-2.06,1.47-4.17,2.88-6.28,4.28-.62.41-1.33.7-1.99,1.04Z"/>
  <path class="cls-5" d="m275.87,272.14c-6.58,2.65-13.32,4.38-20.99,3.52,1.11-1.11,2.2-1.09,3.19-1.27,4.17-.74,8.39-1.29,12.35-2.92.59-.24,1.41-.2,1.51-1.12,1.31.6,2.63,1.19,3.94,1.79Z"/>
  <path class="cls-4" d="m382.45,100.09c.19-2.18.95-3.97,2.99-4.99.54-.27,1.08-.51,1.67-.13.79.5.18,1.03.02,1.53-.65,1.94-.94,3.8.98,5.28.46.36.51.9.1,1.34-.8.85-1.83,1.32-2.96,1.01-2.02-.55-2.63-2.18-2.8-4.05Z"/>
  <path class="cls-5" d="m281.3,295.87c-3.51-.23-6.8,1.35-10.3,1.23-.43-.02-.46.41-.5.75-.25.01-.65.13-.74.01-1.38-1.9-3.86-1.81-5.58-3.09,3.53.28,6.9-.57,10.26-1.51,2.23,1,4.82,1.08,6.85,2.61Z"/>
  <path class="cls-2" d="m274.45,293.26c-3.36.94-6.72,1.79-10.26,1.51-.79-.34-1.58-.68-2.38-1.01-.41-.46-.93-.66-1.54-.62,0,0,0-.03,0-.03.11-.64.6-.7,1.13-.77,2.84-.36,5.68-.74,8.52-1.12,1.58.52,3.15,1.07,4.53,2.04Z"/>
  <path class="cls-2" d="m290.86,251.42c3.7-1.27,7.22-2.37,10.98-3.16-2.89,5.44-5.99,5.57-10.98,3.16Z"/>
  <path class="cls-5" d="m269.92,291.22c-2.84.37-5.68.75-8.52,1.12-.52.07-1.02.13-1.13.77-1.72-.62-3.44-1.24-5.16-1.86,3.38-.63,6.75-1.25,10.13-1.88,1.66.35,3.25.91,4.68,1.85Z"/>
  <path class="cls-2" d="m140.35,98.32c1.2-.54.83,1.57,1.96,1.16.54,3.71,1.08,7.41,1.62,11.11-1.19.71-.91-.49-1.04-.9-1.2-3.71-1.77-7.57-2.54-11.38Z"/>
  <path class="cls-5" d="m211.49,271.31c-.35,2.25,1.53.49,2.07,1.15-1.28,1.81-3.45.67-5.16,1.58-1.8.96-4.16.85-6.37.93,3.15-1.28,5.96-3.32,9.46-3.66Z"/>
  <path class="cls-4" d="m412.92,91.34c1.04.64,3.78-.42,3.67,1.79-.11,2.1-2.46.67-3.78.93-.79.15-2.07.21-1.92-1.27.09-.94.39-1.91,2.03-1.45Z"/>
  <path class="cls-5" d="m44.52,99.98c1.82-2.59,3.74-4.97,7.93-4.78-2.8,2.15-5.19,3.78-7.93,4.78Z"/>
  <path class="cls-2" d="m364.62,228.4c1.46-.36,3.04.71,4.45-.37,2.18.69,4.26,1.55,5.85,3.28-3.4-1.1-7.06-1.26-10.3-2.92Z"/>
  <path class="cls-2" d="m171.02,289.23c.33.17.67.34,1,.52-2.39,1.2-4.86,2.12-7.59,2.09,2.2-.87,4.24-2.14,6.6-2.61Z"/>
  <path class="cls-5" d="m77.89,139.22c.07-1.24-.93-.99-1.63-1.15.73-1.18,2.3-.9,3.2-1.84.31-.32,1.05-.27,1.32.27.27.56.22,1.27-.45,1.5-.88.31-1.43,1.22-2.44,1.22Z"/>
  <path class="cls-2" d="m65.63,115.62c.32-.02.64-.03.97-.05,1.17,1.11,1.64,2.56,2.01,4.07-1.34-1.08-2.33-2.42-2.97-4.02Z"/>
  <path class="cls-3" d="m176.89,130.63c-.8-.29-2.58,1.58-2.31-1.05.75.39,1.78.18,2.31,1.05Z"/>
  <path class="cls-3" d="m173.14,128.88c-.84-.04-1.58-.28-2.08-1.02.84.04,1.69.06,2.08,1.02Z"/>
  <path class="cls-5" d="m260.28,293.14c.61-.04,1.13.16,1.54.62-.61.03-1.31.29-1.54-.62Z"/>
  <path class="cls-3" d="m174.43,129.49c-.4,0-.74-.12-.95-.49.42-.04.76.08.95.49Z"/>
  <polygon class="cls-2" points="380.73 256.75 380.58 256.8 380.67 256.66 380.8 256.65 380.73 256.75"/>
  <polygon class="cls-2" points="381.21 257.36 381.02 257.4 381.09 257.22 381.28 257.19 381.21 257.36"/>
  <path class="cls-3" d="m309.17,94.82c-.09,1.1-.75,1.64-1.82,1.69-1.21.06-1.94-.61-2.06-1.76-.11-1.08.42-1.76,1.6-1.82,1.35-.07,2.01.64,2.28,1.89Z"/>
  <path class="cls-3" d="m313.37,72.88c0,1.29-.67,1.7-1.63,1.7-1.07,0-2.13-.23-2.22-1.55-.08-1.15.71-1.66,1.77-1.69,1.18-.04,1.89.55,2.08,1.54Z"/>
  <path class="cls-3" d="m310.68,87.43c-.15.98-.67,1.58-1.82,1.6-1.16.02-2.06-.29-2.1-1.61-.04-1.1.55-1.75,1.71-1.71,1.11.03,1.98.43,2.21,1.72Z"/>
  <path class="cls-3" d="m309.9,78.56c1.11.03,2.03.41,2.11,1.69.08,1.22-.72,1.62-1.79,1.61-1.15-.01-1.99-.44-2.09-1.73-.1-1.27.68-1.6,1.77-1.57Z"/>
  <path class="cls-1" d="m265.39,178.46c-.34-1.81.32-3.35.3-4.92-.02-1.49.91-2.94.05-4.79-2.73,2.55-5.35,4.99-7.96,7.42-.17-.13-.33-.26-.5-.38,1.88-3.03,3.68-6.12,5.65-9.08,3.95-5.94,7.7-12.01,11.95-17.74,1.03-1.39,1.38-1.23,2.11.2,1.5,2.89,2.08,5.91,1.61,9.1-1.23,8.22-5.28,14.75-11.97,19.66-.31.23-.73.32-1.24.54Z"/>
  <path class="cls-1" d="m167.51,182.78c-4.37,8.58-9.78,16.71-13.75,25.61-3,6.73-3.91,14.01-5.27,21.16-.59,3.12-2.28,5.64-4.84,7.53-2.68,1.98-4.75,1.06-5.45-2.32-.95-4.62-.21-9.18.65-13.68,2.51-13.04,6.59-25.61,11.7-37.85,1.09-2.61,2.54-5,4.54-7.02.77-.77,1.44-1.18,2.06.27,2.68,6.32,4.05,7.11,10.34,6.3Z"/>
  <path class="cls-1" d="m227.55,163.43c-5.12,12.04-7.68,24.42-11.46,36.42-1.26,4.01-3.14,7.72-6.14,10.76-1.64,1.66-3.52,2.91-5.82,3.51-3.28.85-5.49-.62-6.1-3.91-.26-1.4.17-1.75,1.48-1.93,4.3-.59,4.42-.67,5.41-5.06,2.02-8.94,5.07-17.62,6.64-26.67.68-3.9.67-7.79-.33-11.65-.62-2.41,1.15-5.77,3.44-6.88,1.05-.51,1.13.22,1.39.78.42.92.68,1.93,1.21,2.78,2.14,3.44,5.19,4.05,10.28,1.85Z"/>
  <path class="cls-1" d="m199.89,174.73c-.22,4.54-1.6,8.75-2.79,12.98-2.34,8.32-5.02,16.54-6.29,25.13-.44,2.99-1.74,5.71-4.19,7.67-2.74,2.19-5.47,1.25-6.42-2.13-1.15-4.09-.23-8.11.5-12.11,1.74-9.52,3.93-18.92,7.9-27.8.97-2.18,2.14-4.26,3.59-6.16,1.35-1.77,2.86-3.73,5.34-3.06,2.79.76,2.17,3.43,2.35,5.49Z"/>
  <path class="cls-5" d="m274.42,291.32c14.01-2.01,27.23-6.81,40.49-11.48,7.05-2.49,14.15-5.02,21.7-5.51,9.69-.62,18.68,2.05,27.21,6.41,2.4,1.22,4.88,2.4,6.96,4.73-1.53,0-2.4-.87-3.39-1.34-9.6-4.57-19.59-7.62-30.33-7.19-6.92.28-13.42,2.6-19.88,4.91-9.92,3.56-19.6,7.83-30.07,9.72-2.4.43-4.94.16-7.17,1.45-1.98-.13-3.76-.91-5.53-1.71Z"/>
  <path class="cls-5" d="m293.49,297.96c9.34-2,18.41-4.89,27.39-8.11,4.1-1.47,8.33-2.55,12.67-2.93,5.61-.49,11.24-.64,16.77.79,1.28.33,2.66.53,4.2,2.1-10.54-1.23-20.51-2.08-30.33.73,5.71.25,11.41-.71,17.51-.09-11.03,1.96-21.69,3.85-32.36,5.74.02.2.04.39.06.59,6.32-.45,12.65-.9,18.97-1.35.02.22.05.44.07.66-9.79,1.56-19.6,2.92-29.5,3.69-1.82-.6-3.85-.57-5.45-1.81Z"/>
  <path class="cls-6" d="m293.49,297.96c1.6,1.24,3.63,1.21,5.45,1.81,1.72.42,3.43.83,5.15,1.25.18.2.36.4.55.6-2.33.99-4.44-.47-6.67-.59-2.72-.58-5.44-1.16-8.16-1.74-2.75-1.35-5.6-2.46-8.51-3.42-2.03-1.53-4.62-1.6-6.85-2.61-1.38-.97-2.95-1.52-4.53-2.04-1.43-.94-3.01-1.5-4.68-1.85-.21-.42-.72-1.03-.59-1.23.45-.73,1.24-.33,1.8-.12,2.69,1.02,5.17,2.53,7.97,3.3,1.77.81,3.55,1.58,5.53,1.71,4.4,1.94,8.77,3.99,13.53,4.93Z"/>
  <path class="cls-5" d="m343.16,302.62c-2.01,1.59-4.47,1.07-6.75,1.41-.92.14-1.85.13-2.78.18-1.65-.32-3.29-.45-4.88.29,0,0-.14.02-.14.02-1.78,0-3.56,0-5.35,0,5.36-1,10.74-1.63,16.17-1.82h-17.6c5.03-1.72,10.15-2.57,15.42-2.15,2.15.17,3.66,2.18,5.91,2.06Z"/>
  <path class="cls-5" d="m363.1,296.34c-.45.8-1.28.91-2.04,1.14-7.56-2.55-15.53-1.81-23.28-2.99,8.58-1.3,17.07-1.46,25.32,1.84Z"/>
  <path class="cls-5" d="m370.05,290.67c-.14.2-.28.4-.42.6-4.46-.85-8.44-2.98-12.56-4.75-1.56-.67-3.35-1.06-4.32-2.82,6.3.98,12.04,3.35,17.3,6.97Z"/>
  <path class="cls-5" d="m354.42,299.34c-2.78-1.06-5.77-.57-8.67-1.61,3.08-1.69,7.19-.94,8.67,1.61Z"/>
  <path class="cls-5" d="m304.63,301.61c-.18-.2-.36-.4-.55-.6,3.28,0,6.56,0,9.83,0-3.08.6-6.13,1.44-9.29.6Z"/>
  <path class="cls-5" d="m312.91,303.53c-1.35.48-2.69.74-4.35-.38,1.74-.21,3.05-.2,4.35.38Z"/>
  <path class="cls-1" d="m78.62,99.25c-2.26-2.36-2.48-4.18-.8-6.44,1.43-1.93,3.77-2.25,6.29-.94,8.87,4.64,17.64,9.46,26.72,13.68,1.34.62,2.72,1.42,3.68,2.5,2.11,2.37.72,6.39-2.46,7.54-.55.2-1.13.33-1.69.49.11-.81-.56-.95-1.07-1.22-7.52-3.93-15.03-7.88-22.56-11.79-2.66-1.38-5.21-2.99-8.12-3.84Z"/>
  <path class="cls-1" d="m84.04,80.66c2.14-3.22,3.46-3.76,7.16-1.71,9.36,5.19,18.97,9.87,28.49,14.74,5.32,2.72,5.45,4.81,1.19,9.19-1,.02-1.95-.11-2.91-.49-1.42-.56-2.58-1.8-4.27-1.63h0c-.18-1.12-1.24-1.21-1.99-1.59-7.98-4.11-15.97-8.23-23.99-12.25-2.65-1.33-4.12-3.18-3.68-6.24Z"/>
  <path class="cls-2" d="m78.62,99.25c2.91.85,5.46,2.46,8.12,3.84,7.53,3.9,15.04,7.85,22.56,11.79.51.26,1.18.4,1.07,1.22-2.52-.3-4.49-1.87-6.64-2.97-7.73-3.94-15.37-8.07-23.03-12.15-.8-.42-1.78-.68-2.08-1.73Z"/>
  <path class="cls-2" d="m84.04,80.66c-.45,3.07,1.03,4.91,3.68,6.24,8.03,4.03,16.01,8.14,23.99,12.25.75.39,1.8.47,1.99,1.59-3.81-1.17-7.15-3.35-10.68-5.08-5.61-2.75-11.17-5.64-16.7-8.56-2.95-1.56-3.58-3.57-2.27-6.44Z"/>
  <path class="cls-2" d="m113.69,100.75c1.69-.17,2.86,1.07,4.27,1.63.96.38,1.91.51,2.91.49-3.05,1.52-4.98-.77-7.18-2.12Z"/>
  <path class="cls-1" d="m424.04,249.86c-3.3,3.86-7.61,6.24-12.24,7.98-3.55,1.34-7.26,2.29-11.17,1.29-1.68-.43-3.01-1.48-2.86-2.98.13-1.38,1.58-2.26,3.25-2.29,7.02-.13,13.53-2.26,19.84-5.13,1.05.41,2.73-.96,3.17,1.13Z"/>
  <path class="cls-5" d="m424.04,249.86c-.45-2.09-2.13-.72-3.17-1.13,1.77-1.52,3.95-2.35,5.89-3.57.36-.22.72-.56,1.09-.18.4.42.33,1.05-.03,1.37-1.26,1.16-2.11,2.79-3.78,3.5Z"/>
  <path class="cls-1" d="m190.39,290.61c-6.63,1.76-13.32,3.3-19.7,5.94-8.46,3.49-16.88,7.15-25.79,9.31-5.48,1.33-11.03,2.43-16.57,3.54-6.2,1.24-12.43,1.63-18.67,2.2-.94.09-1.87.09-2.72-.5.34-.83,1.14-.84,1.79-.86,4.59-.19,9.07-1.1,13.55-2.02,8.52-1.75,17.01-3.53,25.44-5.79,6.54-1.75,12.61-4.44,18.74-7.07,6.7-2.88,13.59-5.01,20.88-5.71.95.54,2.48-.76,3.05.97Z"/>
  <path class="cls-5" d="m190.39,290.61c-.57-1.73-2.1-.43-3.05-.97.93-.87,2.1-1.02,3.26-.92.75.06,2.13-.67,2.1.78-.03,1.33-1.27,1.28-2.32,1.1Z"/>
  <path class="cls-5" d="m371.78,257.48c-9.4-5.51-19.28-9.53-30.37-9.67-6.11-.08-12.23-.02-18.34.01-.45,0-.81.04-1.07-.37,8.36-1.21,16.64-3.45,25.2-2.35,5.47.7,10.76,1.75,15.71,4.66,3.31,1.95,6.54,3.71,8.76,6.91.17.25.51.47.12.8Z"/>
  <path class="cls-2" d="m376.29,265.04c-5.81.48-11.26-1.17-16.64-3.02-4.23-1.46-8.39-3.13-13.01-4.87,2.71-.63,4.86.21,7.02.58,7.01,1.18,13.84,3.49,21.07,3.33,1.05,1.12,1.25,2.58,1.56,3.99Z"/>
  <path class="cls-2" d="m328.75,304.51c1.59-.75,3.23-.61,4.88-.29-1.61.44-3.23.59-4.88.29Z"/>
  <path class="cls-2" d="m366.24,84.67c-.84-.74-1.72-1.49-1.33-2.74.24-.77,1.01.54,1.43-.17.65.95,1.01,1.89-.09,2.9Z"/>
  <path class="cls-1" d="m73.16,246.67c-3.4,0-5.76-3.25-4.35-6.02.57-1.11,1.23-1.64,2.22-.28,1,1.37,2.11,2.66,3.22,3.95.42.49,1.34.77.95,1.59-.37.77-1.25.77-2.04.75Z"/>
  <path class="cls-1" d="m55.44,128.84c0,1.2-.08,2.54-1.91,2.4-1.35-.1-2.89-.34-2.7-2.18.13-1.28.47-2.79,2.34-2.69,1.44.08,2.42.68,2.26,2.47Z"/>
</svg>